<svg width="1024" height="1024" viewBox="0 0 512 512" fill="none" xmlns="http://www.w3.org/2000/svg">
  <path d="M256 64C238.33 64 224 78.33 224 96V128H288V96C288 78.33 273.67 64 256 64Z" fill="#1f5c48"/>
  <path d="M128 192C128 174.33 142.33 160 160 160H352C369.67 160 384 174.33 384 192V448H128V192Z" fill="#1f5c48"/>
  <path d="M96 448H416V480H96V448Z" fill="#1f5c48"/>
  <path d="M160 224H192V256H160V224Z" fill="#f7f0d7"/>
  <path d="M224 224H256V256H224V224Z" fill="#f7f0d7"/>
  <path d="M288 224H320V256H288V224Z" fill="#f7f0d7"/>
  <path d="M160 288H192V320H160V288Z" fill="#f7f0d7"/>
  <path d="M224 288H256V320H224V288Z" fill="#f7f0d7"/>
  <path d="M288 288H320V320H288V288Z" fill="#f7f0d7"/>
  <path d="M160 352H192V384H160V352Z" fill="#f7f0d7"/>
  <path d="M224 352H256V384H224V352Z" fill="#f7f0d7"/>
  <path d="M288 352H320V384H288V352Z" fill="#f7f0d7"/>
  <path d="M224 384H288V448H224V384Z" fill="#f7f0d7"/>
  <path d="M256 32C247.16 32 240 39.16 240 48V64H272V48C272 39.16 264.84 32 256 32Z" fill="#1f5c48"/>
  <path d="M208 128H304V160H208V128Z" fill="#1f5c48"/>
  <path d="M64 448H448V512H64V448Z" fill="#1f5c48"/>
  <path d="M256 96C264.84 96 272 88.84 272 80C272 71.16 264.84 64 256 64C247.16 64 240 71.16 240 80C240 88.84 247.16 96 256 96Z" fill="#cfa04c"/>
  <path d="M96 192C96 165.49 117.49 144 144 144H368C394.51 144 416 165.49 416 192V208H96V192Z" fill="#cfa04c"/>
  <path d="M80 208H432V224H80V208Z" fill="#1f5c48"/>
</svg>
